<mxfile host="app.diagrams.net" agent="Mozilla/5.0 (Windows NT 10.0; Win64; x64) AppleWebKit/537.36 (KHTML, like Gecko) Chrome/138.0.0.0 Safari/537.36" version="28.0.6">
  <diagram name="Page-1" id="A3NifjXvY5vIst3UiWV9">
    <mxGraphModel dx="1111" dy="445" grid="1" gridSize="10" guides="1" tooltips="1" connect="1" arrows="1" fold="1" page="1" pageScale="1" pageWidth="827" pageHeight="1299" background="none" math="0" shadow="0">
      <root>
        <mxCell id="0" />
        <mxCell id="1" parent="0" />
        <mxCell id="4erT3ZUYu_DKqHfcm8yE-7" style="edgeStyle=orthogonalEdgeStyle;rounded=0;orthogonalLoop=1;jettySize=auto;html=1;exitX=0.5;exitY=1;exitDx=0;exitDy=0;entryX=0.5;entryY=0;entryDx=0;entryDy=0;" parent="1" source="4erT3ZUYu_DKqHfcm8yE-1" target="4erT3ZUYu_DKqHfcm8yE-5" edge="1">
          <mxGeometry relative="1" as="geometry" />
        </mxCell>
        <mxCell id="4erT3ZUYu_DKqHfcm8yE-1" value="START" style="ellipse;whiteSpace=wrap;html=1;" parent="1" vertex="1">
          <mxGeometry x="80" y="40" width="120" height="80" as="geometry" />
        </mxCell>
        <mxCell id="4erT3ZUYu_DKqHfcm8yE-9" style="edgeStyle=orthogonalEdgeStyle;rounded=0;orthogonalLoop=1;jettySize=auto;html=1;exitX=0.5;exitY=1;exitDx=0;exitDy=0;entryX=0.5;entryY=0;entryDx=0;entryDy=0;" parent="1" source="4erT3ZUYu_DKqHfcm8yE-5" edge="1">
          <mxGeometry relative="1" as="geometry">
            <mxPoint x="140" y="240" as="targetPoint" />
          </mxGeometry>
        </mxCell>
        <mxCell id="4erT3ZUYu_DKqHfcm8yE-5" value="tugas, uts, uas" style="shape=parallelogram;perimeter=parallelogramPerimeter;whiteSpace=wrap;html=1;fixedSize=1;" parent="1" vertex="1">
          <mxGeometry x="70" y="160" width="140" height="50" as="geometry" />
        </mxCell>
        <mxCell id="4erT3ZUYu_DKqHfcm8yE-13" style="edgeStyle=orthogonalEdgeStyle;rounded=0;orthogonalLoop=1;jettySize=auto;html=1;exitX=0.5;exitY=1;exitDx=0;exitDy=0;entryX=0.5;entryY=0;entryDx=0;entryDy=0;" parent="1" target="4erT3ZUYu_DKqHfcm8yE-12" edge="1">
          <mxGeometry relative="1" as="geometry">
            <mxPoint x="140" y="280" as="sourcePoint" />
          </mxGeometry>
        </mxCell>
        <mxCell id="4erT3ZUYu_DKqHfcm8yE-18" style="edgeStyle=orthogonalEdgeStyle;rounded=0;orthogonalLoop=1;jettySize=auto;html=1;exitX=1;exitY=0.5;exitDx=0;exitDy=0;" parent="1" source="4erT3ZUYu_DKqHfcm8yE-12" target="4erT3ZUYu_DKqHfcm8yE-14" edge="1">
          <mxGeometry relative="1" as="geometry" />
        </mxCell>
        <mxCell id="4erT3ZUYu_DKqHfcm8yE-19" value="Ya" style="edgeLabel;html=1;align=center;verticalAlign=middle;resizable=0;points=[];" parent="4erT3ZUYu_DKqHfcm8yE-18" vertex="1" connectable="0">
          <mxGeometry x="-0.174" y="-1" relative="1" as="geometry">
            <mxPoint as="offset" />
          </mxGeometry>
        </mxCell>
        <mxCell id="4erT3ZUYu_DKqHfcm8yE-36" style="edgeStyle=orthogonalEdgeStyle;rounded=0;orthogonalLoop=1;jettySize=auto;html=1;exitX=0.5;exitY=1;exitDx=0;exitDy=0;entryX=0.5;entryY=0;entryDx=0;entryDy=0;" parent="1" source="4erT3ZUYu_DKqHfcm8yE-12" target="4erT3ZUYu_DKqHfcm8yE-22" edge="1">
          <mxGeometry relative="1" as="geometry" />
        </mxCell>
        <mxCell id="4erT3ZUYu_DKqHfcm8yE-38" value="Tidak" style="edgeLabel;html=1;align=center;verticalAlign=middle;resizable=0;points=[];" parent="4erT3ZUYu_DKqHfcm8yE-36" vertex="1" connectable="0">
          <mxGeometry x="-0.2076" y="2" relative="1" as="geometry">
            <mxPoint as="offset" />
          </mxGeometry>
        </mxCell>
        <mxCell id="4erT3ZUYu_DKqHfcm8yE-12" value="avg &amp;lt;= 25" style="rhombus;whiteSpace=wrap;html=1;" parent="1" vertex="1">
          <mxGeometry x="100" y="320" width="80" height="80" as="geometry" />
        </mxCell>
        <mxCell id="4erT3ZUYu_DKqHfcm8yE-98" style="edgeStyle=orthogonalEdgeStyle;rounded=0;orthogonalLoop=1;jettySize=auto;html=1;exitX=0.5;exitY=1;exitDx=0;exitDy=0;entryX=1;entryY=0.5;entryDx=0;entryDy=0;" parent="1" source="4erT3ZUYu_DKqHfcm8yE-14" target="4erT3ZUYu_DKqHfcm8yE-66" edge="1">
          <mxGeometry relative="1" as="geometry">
            <Array as="points">
              <mxPoint x="346" y="440" />
              <mxPoint x="600" y="440" />
              <mxPoint x="600" y="975" />
            </Array>
          </mxGeometry>
        </mxCell>
        <mxCell id="4erT3ZUYu_DKqHfcm8yE-14" value="predikat ←&amp;nbsp;&quot;cukup kurang&quot;" style="rounded=0;whiteSpace=wrap;html=1;" parent="1" vertex="1">
          <mxGeometry x="256" y="340" width="180" height="40" as="geometry" />
        </mxCell>
        <mxCell id="4erT3ZUYu_DKqHfcm8yE-20" style="edgeStyle=orthogonalEdgeStyle;rounded=0;orthogonalLoop=1;jettySize=auto;html=1;exitX=1;exitY=0.5;exitDx=0;exitDy=0;" parent="1" source="4erT3ZUYu_DKqHfcm8yE-22" target="4erT3ZUYu_DKqHfcm8yE-23" edge="1">
          <mxGeometry relative="1" as="geometry" />
        </mxCell>
        <mxCell id="4erT3ZUYu_DKqHfcm8yE-21" value="Ya" style="edgeLabel;html=1;align=center;verticalAlign=middle;resizable=0;points=[];" parent="4erT3ZUYu_DKqHfcm8yE-20" vertex="1" connectable="0">
          <mxGeometry x="-0.174" y="-1" relative="1" as="geometry">
            <mxPoint as="offset" />
          </mxGeometry>
        </mxCell>
        <mxCell id="4erT3ZUYu_DKqHfcm8yE-49" style="edgeStyle=orthogonalEdgeStyle;rounded=0;orthogonalLoop=1;jettySize=auto;html=1;exitX=0.5;exitY=1;exitDx=0;exitDy=0;entryX=0.5;entryY=0;entryDx=0;entryDy=0;" parent="1" source="4erT3ZUYu_DKqHfcm8yE-22" target="4erT3ZUYu_DKqHfcm8yE-47" edge="1">
          <mxGeometry relative="1" as="geometry" />
        </mxCell>
        <mxCell id="4erT3ZUYu_DKqHfcm8yE-51" value="Tidak" style="edgeLabel;html=1;align=center;verticalAlign=middle;resizable=0;points=[];" parent="4erT3ZUYu_DKqHfcm8yE-49" vertex="1" connectable="0">
          <mxGeometry x="-0.08" y="1" relative="1" as="geometry">
            <mxPoint as="offset" />
          </mxGeometry>
        </mxCell>
        <mxCell id="4erT3ZUYu_DKqHfcm8yE-22" value="avg &amp;lt;= 50" style="rhombus;whiteSpace=wrap;html=1;" parent="1" vertex="1">
          <mxGeometry x="100" y="450" width="80" height="80" as="geometry" />
        </mxCell>
        <mxCell id="4erT3ZUYu_DKqHfcm8yE-97" style="edgeStyle=orthogonalEdgeStyle;rounded=0;orthogonalLoop=1;jettySize=auto;html=1;exitX=0.5;exitY=1;exitDx=0;exitDy=0;entryX=0.75;entryY=0;entryDx=0;entryDy=0;" parent="1" source="4erT3ZUYu_DKqHfcm8yE-23" target="4erT3ZUYu_DKqHfcm8yE-66" edge="1">
          <mxGeometry relative="1" as="geometry">
            <Array as="points">
              <mxPoint x="346" y="550" />
              <mxPoint x="500" y="550" />
              <mxPoint x="500" y="840" />
              <mxPoint x="416" y="840" />
            </Array>
          </mxGeometry>
        </mxCell>
        <mxCell id="4erT3ZUYu_DKqHfcm8yE-23" value="predikat ←&amp;nbsp;&quot;cukup baik&quot;" style="rounded=0;whiteSpace=wrap;html=1;" parent="1" vertex="1">
          <mxGeometry x="256" y="470" width="180" height="40" as="geometry" />
        </mxCell>
        <mxCell id="4erT3ZUYu_DKqHfcm8yE-45" style="edgeStyle=orthogonalEdgeStyle;rounded=0;orthogonalLoop=1;jettySize=auto;html=1;exitX=1;exitY=0.5;exitDx=0;exitDy=0;" parent="1" source="4erT3ZUYu_DKqHfcm8yE-47" target="4erT3ZUYu_DKqHfcm8yE-48" edge="1">
          <mxGeometry relative="1" as="geometry" />
        </mxCell>
        <mxCell id="4erT3ZUYu_DKqHfcm8yE-46" value="Ya" style="edgeLabel;html=1;align=center;verticalAlign=middle;resizable=0;points=[];" parent="4erT3ZUYu_DKqHfcm8yE-45" vertex="1" connectable="0">
          <mxGeometry x="-0.174" y="-1" relative="1" as="geometry">
            <mxPoint as="offset" />
          </mxGeometry>
        </mxCell>
        <mxCell id="4erT3ZUYu_DKqHfcm8yE-47" value="avg &amp;lt;= 75" style="rhombus;whiteSpace=wrap;html=1;" parent="1" vertex="1">
          <mxGeometry x="100" y="580" width="80" height="80" as="geometry" />
        </mxCell>
        <mxCell id="4erT3ZUYu_DKqHfcm8yE-94" style="edgeStyle=orthogonalEdgeStyle;rounded=0;orthogonalLoop=1;jettySize=auto;html=1;exitX=0.5;exitY=1;exitDx=0;exitDy=0;entryX=0.5;entryY=0;entryDx=0;entryDy=0;" parent="1" source="4erT3ZUYu_DKqHfcm8yE-48" target="4erT3ZUYu_DKqHfcm8yE-66" edge="1">
          <mxGeometry relative="1" as="geometry">
            <Array as="points">
              <mxPoint x="346" y="680" />
              <mxPoint x="460" y="680" />
              <mxPoint x="460" y="810" />
              <mxPoint x="381" y="810" />
            </Array>
          </mxGeometry>
        </mxCell>
        <mxCell id="4erT3ZUYu_DKqHfcm8yE-48" value="predikat ←&amp;nbsp;&quot;baik&quot;" style="rounded=0;whiteSpace=wrap;html=1;" parent="1" vertex="1">
          <mxGeometry x="256" y="600" width="180" height="40" as="geometry" />
        </mxCell>
        <mxCell id="4erT3ZUYu_DKqHfcm8yE-52" style="edgeStyle=orthogonalEdgeStyle;rounded=0;orthogonalLoop=1;jettySize=auto;html=1;exitX=0.5;exitY=1;exitDx=0;exitDy=0;entryX=0.5;entryY=0;entryDx=0;entryDy=0;" parent="1" target="4erT3ZUYu_DKqHfcm8yE-56" edge="1">
          <mxGeometry relative="1" as="geometry">
            <mxPoint x="140" y="660" as="sourcePoint" />
          </mxGeometry>
        </mxCell>
        <mxCell id="4erT3ZUYu_DKqHfcm8yE-53" value="Tidak" style="edgeLabel;html=1;align=center;verticalAlign=middle;resizable=0;points=[];" parent="4erT3ZUYu_DKqHfcm8yE-52" vertex="1" connectable="0">
          <mxGeometry x="-0.2076" y="2" relative="1" as="geometry">
            <mxPoint as="offset" />
          </mxGeometry>
        </mxCell>
        <mxCell id="4erT3ZUYu_DKqHfcm8yE-54" style="edgeStyle=orthogonalEdgeStyle;rounded=0;orthogonalLoop=1;jettySize=auto;html=1;exitX=1;exitY=0.5;exitDx=0;exitDy=0;" parent="1" source="4erT3ZUYu_DKqHfcm8yE-56" target="4erT3ZUYu_DKqHfcm8yE-57" edge="1">
          <mxGeometry relative="1" as="geometry" />
        </mxCell>
        <mxCell id="4erT3ZUYu_DKqHfcm8yE-55" value="Ya" style="edgeLabel;html=1;align=center;verticalAlign=middle;resizable=0;points=[];" parent="4erT3ZUYu_DKqHfcm8yE-54" vertex="1" connectable="0">
          <mxGeometry x="-0.174" y="-1" relative="1" as="geometry">
            <mxPoint as="offset" />
          </mxGeometry>
        </mxCell>
        <mxCell id="4erT3ZUYu_DKqHfcm8yE-56" value="avg &amp;lt;= 100" style="rhombus;whiteSpace=wrap;html=1;" parent="1" vertex="1">
          <mxGeometry x="100" y="710" width="80" height="80" as="geometry" />
        </mxCell>
        <mxCell id="4erT3ZUYu_DKqHfcm8yE-93" style="edgeStyle=orthogonalEdgeStyle;rounded=0;orthogonalLoop=1;jettySize=auto;html=1;exitX=0.5;exitY=1;exitDx=0;exitDy=0;entryX=0.25;entryY=0;entryDx=0;entryDy=0;" parent="1" source="4erT3ZUYu_DKqHfcm8yE-57" target="4erT3ZUYu_DKqHfcm8yE-66" edge="1">
          <mxGeometry relative="1" as="geometry" />
        </mxCell>
        <mxCell id="4erT3ZUYu_DKqHfcm8yE-57" value="predikat ←&amp;nbsp;&quot;sangat baik&quot;" style="rounded=0;whiteSpace=wrap;html=1;" parent="1" vertex="1">
          <mxGeometry x="256" y="730" width="180" height="40" as="geometry" />
        </mxCell>
        <mxCell id="4erT3ZUYu_DKqHfcm8yE-63" style="edgeStyle=orthogonalEdgeStyle;rounded=0;orthogonalLoop=1;jettySize=auto;html=1;exitX=0.5;exitY=1;exitDx=0;exitDy=0;entryX=0.5;entryY=0;entryDx=0;entryDy=0;" parent="1" edge="1">
          <mxGeometry relative="1" as="geometry">
            <mxPoint x="139.84" y="790" as="sourcePoint" />
            <mxPoint x="139.84" y="840" as="targetPoint" />
          </mxGeometry>
        </mxCell>
        <mxCell id="4erT3ZUYu_DKqHfcm8yE-64" value="Tidak" style="edgeLabel;html=1;align=center;verticalAlign=middle;resizable=0;points=[];" parent="4erT3ZUYu_DKqHfcm8yE-63" vertex="1" connectable="0">
          <mxGeometry x="-0.2076" y="2" relative="1" as="geometry">
            <mxPoint as="offset" />
          </mxGeometry>
        </mxCell>
        <mxCell id="4erT3ZUYu_DKqHfcm8yE-88" style="edgeStyle=orthogonalEdgeStyle;rounded=0;orthogonalLoop=1;jettySize=auto;html=1;exitX=0.5;exitY=1;exitDx=0;exitDy=0;entryX=0;entryY=0.5;entryDx=0;entryDy=0;" parent="1" source="4erT3ZUYu_DKqHfcm8yE-65" target="4erT3ZUYu_DKqHfcm8yE-66" edge="1">
          <mxGeometry relative="1" as="geometry">
            <Array as="points">
              <mxPoint x="140" y="975" />
            </Array>
          </mxGeometry>
        </mxCell>
        <mxCell id="4erT3ZUYu_DKqHfcm8yE-65" value="predikat ←&amp;nbsp;&quot;nilai tidak valid&quot;" style="rounded=0;whiteSpace=wrap;html=1;" parent="1" vertex="1">
          <mxGeometry x="50" y="840" width="180" height="40" as="geometry" />
        </mxCell>
        <mxCell id="4erT3ZUYu_DKqHfcm8yE-100" style="edgeStyle=orthogonalEdgeStyle;rounded=0;orthogonalLoop=1;jettySize=auto;html=1;exitX=0.5;exitY=1;exitDx=0;exitDy=0;entryX=0.5;entryY=0;entryDx=0;entryDy=0;" parent="1" source="4erT3ZUYu_DKqHfcm8yE-66" target="4erT3ZUYu_DKqHfcm8yE-99" edge="1">
          <mxGeometry relative="1" as="geometry" />
        </mxCell>
        <mxCell id="4erT3ZUYu_DKqHfcm8yE-66" value="avg, predikat" style="shape=parallelogram;perimeter=parallelogramPerimeter;whiteSpace=wrap;html=1;fixedSize=1;" parent="1" vertex="1">
          <mxGeometry x="311" y="950" width="140" height="50" as="geometry" />
        </mxCell>
        <mxCell id="4erT3ZUYu_DKqHfcm8yE-99" value="END" style="ellipse;whiteSpace=wrap;html=1;" parent="1" vertex="1">
          <mxGeometry x="321" y="1060" width="120" height="80" as="geometry" />
        </mxCell>
        <mxCell id="4erT3ZUYu_DKqHfcm8yE-101" value="avg ←&amp;nbsp;(tugas + uts + uas) / 3" style="rounded=0;whiteSpace=wrap;html=1;" parent="1" vertex="1">
          <mxGeometry x="50" y="240" width="180" height="40" as="geometry" />
        </mxCell>
      </root>
    </mxGraphModel>
  </diagram>
</mxfile>
